<svg width="1300" height="1323" viewBox="-600 -100 1300 1323" fill="none" xmlns="http://www.w3.org/2000/svg">
<rect width="1300" height="1323" fill="#1c4e8c"/>
<path d="M133.913 620.357C133.913 596.652 153.13 577.435 176.834 577.435C200.539 577.435 219.755 596.652 219.755 620.357V905.359C219.755 929.064 200.539 948.28 176.834 948.28C153.13 948.28 133.913 929.064 133.913 905.359V620.357Z" fill="#4C95EC" fill-opacity="0.1"/>
<path d="M271.26 337.073C271.26 310.523 292.782 289 319.331 289C345.881 289 367.403 310.523 367.403 337.073V1044.43C367.403 1070.98 345.881 1092.5 319.331 1092.5C292.782 1092.5 271.26 1070.98 271.26 1044.43V337.073Z" fill="#4C95EC" fill-opacity="0.1"/>
<path d="M515.051 975.75C515.051 1002.3 493.528 1023.82 466.979 1023.82C440.43 1023.82 418.908 1002.3 418.908 975.75L418.908 574.001C418.908 547.452 440.43 525.929 466.979 525.929C493.528 525.929 515.051 547.452 515.051 574.001L515.051 975.75Z" fill="#4C95EC" fill-opacity="0.1"/>
<path d="M652.398 716.502C652.398 740.207 633.181 759.424 609.477 759.424C585.772 759.424 566.556 740.207 566.556 716.502V472.706C566.556 449.001 585.772 429.784 609.477 429.784C633.181 429.784 652.398 449.001 652.398 472.706V716.502Z" fill="#4C95EC" fill-opacity="0.1"/>
<path d="M0 689.032C0 665.327 19.2163 646.11 42.9209 646.11C66.6255 646.11 85.8418 665.327 85.8418 689.032C85.8418 712.737 66.6255 731.954 42.9209 731.954C19.2163 731.954 0 712.737 0 689.032Z" fill="#4C95EC" fill-opacity="0.1"/>
<path d="M786.311 689.032C786.311 712.737 767.094 731.954 743.39 731.954C719.685 731.954 700.469 712.737 700.469 689.032C700.469 665.327 719.685 646.11 743.39 646.11C767.094 646.11 786.311 665.327 786.311 689.032Z" fill="#4C95EC" fill-opacity="0.1"/>
</svg>
